<svg width="54" height="54" viewBox="0 0 54 54" fill="none" xmlns="http://www.w3.org/2000/svg">
<circle cx="27" cy="27" r="27" fill="white"/>
<path d="M26.76 25.62C28.79 25.62 30.45 23.97 30.45 21.94C30.45 19.91 28.8 18.25 26.76 18.25C24.73 18.25 23.08 19.9 23.08 21.94C23.08 23.98 24.73 25.62 26.76 25.62Z" fill="#B388FF"/>
<path d="M29.64 27.05H24.37C22.01 27.05 20.1 28.97 20.1 31.32V32C20.1 32.96 20.89 33.75 21.85 33.75H32.16C33.12 33.75 33.91 32.96 33.91 32V31.33C33.91 28.97 31.99 27.05 29.64 27.05Z" fill="#B388FF"/>
</svg>
