<svg width="11" height="14" viewBox="0 0 11 14" fill="none" xmlns="http://www.w3.org/2000/svg">
<path d="M10.8382 6.68581L6.00062 13.58C5.81456 13.853 5.514 14 5.19197 14C5.09178 14 4.99159 13.986 4.8914 13.958C4.4835 13.832 4.20441 13.4751 4.20441 13.0621V9.11454C4.20441 8.95356 4.04698 8.81357 3.85376 8.81357L0.969804 8.77857C0.604837 8.77857 0.268501 8.5756 0.103908 8.26763C-0.0535286 7.96666 -0.0320598 7.6027 0.168314 7.31574L4.99875 0.421493C5.24206 0.0715319 5.6929 -0.0824581 6.10796 0.0435281C6.51587 0.169514 6.79496 0.526475 6.79496 0.93943V4.88701C6.79496 5.04799 6.9524 5.18797 7.14561 5.18797L10.0296 5.22296C10.3945 5.22296 10.7309 5.41894 10.8955 5.73391C11.0529 6.03488 11.0314 6.39884 10.8382 6.68581Z" fill="#1E445B"/>
</svg>
